{"glyphs":{"0":{"ha":937,"x_min":64,"x_max":873,"o":"m 468 -14 l 468 -14 q 250 48 340 -14 q 112 225 160 109 q 64 505 64 340 l 64 505 q 112 784 64 668 q 250 962 160 901 q 468 1024 340 1024 l 468 1024 q 686 962 595 1024 q 825 784 777 900 q 873 505 873 668 l 873 505 q 825 225 873 340 q 687 48 777 109 q 468 -14 596 -14 m 468 158 l 468 158 q 573 199 530 158 q 639 317 616 239 q 662 505 662 394 l 662 505 q 639 694 662 616 q 573 812 616 772 q 468 853 530 853 l 468 853 q 363 812 406 853 q 297 693 319 771 q 275 505 275 616 l 275 505 q 297 317 275 394 q 363 199 319 239 q 468 158 406 158 "},"1":{"ha":599,"x_min":63,"x_max":508,"o":"m 286 1010 l 508 1010 l 508 0 l 301 0 l 301 828 l 294 828 l 63 664 l 63 854 l 286 1010 "},"2":{"ha":875,"x_min":75,"x_max":799,"o":"m 799 0 l 84 0 l 84 149 l 442 485 q 520 566 488 530 q 568 637 551 602 q 585 713 585 672 l 585 713 q 564 791 585 758 q 509 841 544 823 q 428 859 473 859 l 428 859 q 346 840 381 859 q 292 785 311 821 q 273 701 273 750 l 273 701 l 75 701 q 120 872 75 799 q 245 984 165 945 q 429 1024 325 1024 l 429 1024 q 616 986 536 1024 q 741 880 696 947 q 785 726 785 813 l 785 726 q 763 614 785 669 q 685 491 741 559 q 524 328 628 423 l 524 328 l 372 178 l 372 170 l 799 170 l 799 0 "},"3":{"ha":897,"x_min":67,"x_max":833,"o":"m 447 -14 l 447 -14 q 252 24 337 -14 q 118 129 167 62 q 67 283 68 196 l 67 283 l 275 283 q 300 217 277 245 q 361 174 323 189 q 448 158 400 158 l 448 158 q 536 175 498 158 q 595 224 574 193 q 617 296 617 255 l 617 296 q 594 370 617 338 q 530 420 572 402 q 429 438 488 438 l 429 438 l 335 438 l 335 592 l 429 592 q 515 609 478 592 q 574 657 553 627 q 595 728 595 687 l 595 728 q 577 796 595 767 q 526 842 559 825 q 449 859 493 859 l 449 859 q 368 843 405 859 q 309 798 332 827 q 286 730 287 770 l 286 730 l 87 730 q 136 883 88 817 q 266 987 184 949 q 450 1024 348 1024 l 450 1024 q 632 986 554 1024 q 753 884 710 948 q 796 741 796 819 l 796 741 q 744 599 796 656 q 607 526 691 542 l 607 526 l 607 518 q 731 477 680 509 q 807 395 781 445 q 833 283 833 346 l 833 283 q 783 130 833 197 q 647 25 734 63 q 447 -14 559 -14 "},"4":{"ha":939,"x_min":68,"x_max":877,"o":"m 877 180 l 68 180 l 68 343 l 491 1010 l 631 1010 l 631 783 l 548 783 l 277 355 l 277 347 l 877 347 l 877 180 m 751 0 l 552 0 l 552 229 l 556 302 l 556 1010 l 751 1010 l 751 0 "},"5":{"ha":864,"x_min":63,"x_max":800,"o":"m 426 -14 l 426 -14 q 241 25 322 -14 q 113 130 160 63 q 63 283 66 197 l 63 283 l 265 283 q 289 214 267 244 q 347 167 311 184 q 426 151 383 151 l 426 151 q 516 173 477 151 q 577 237 555 196 q 600 331 600 277 l 600 331 q 577 426 600 385 q 514 491 554 468 q 422 514 475 514 l 422 514 q 335 496 377 514 q 271 448 294 478 l 271 448 l 85 480 l 133 1010 l 745 1010 l 745 840 l 304 840 l 279 584 l 284 584 q 365 644 311 621 q 483 668 418 668 l 483 668 q 609 644 551 668 q 710 575 667 619 q 777 469 753 530 q 800 336 800 408 l 800 336 q 753 155 800 234 q 622 32 706 77 q 426 -14 537 -14 "},"6":{"ha":902,"x_min":64,"x_max":839,"o":"m 464 -14 l 464 -14 q 315 12 387 -14 q 187 95 243 38 q 97 248 130 153 q 64 481 64 342 l 64 481 q 92 709 64 609 q 174 880 121 810 q 303 987 228 951 q 471 1024 378 1024 l 471 1024 q 648 985 571 1024 q 771 880 724 946 q 828 730 819 814 l 828 730 l 625 730 q 571 815 612 784 q 471 846 531 846 l 471 846 q 359 806 405 846 q 290 695 313 767 q 267 523 267 623 l 267 523 l 274 523 q 335 599 297 567 q 423 647 374 631 q 528 664 473 664 l 528 664 q 687 622 617 664 q 798 507 758 581 q 839 338 839 433 l 839 338 q 791 156 839 235 q 660 32 744 77 q 464 -14 576 -14 m 463 151 l 463 151 q 552 175 513 151 q 614 240 591 199 q 637 332 637 281 l 637 332 q 615 424 637 383 q 553 489 593 465 q 464 513 514 513 l 464 513 q 395 498 427 513 q 339 459 363 484 q 301 401 315 434 q 288 332 288 369 l 288 332 q 311 241 288 282 q 373 175 333 200 q 463 151 412 151 "},"7":{"ha":808,"x_min":51,"x_max":757,"o":"m 335 0 l 120 0 l 541 833 l 541 840 l 51 840 l 51 1010 l 757 1010 l 757 837 l 335 0 "},"8":{"ha":904,"x_min":64,"x_max":841,"o":"m 452 -14 l 452 -14 q 251 24 338 -14 q 114 125 163 61 q 64 271 64 190 l 64 271 q 93 388 64 334 q 171 476 121 441 q 281 522 220 512 l 281 522 l 281 528 q 151 608 201 545 q 100 753 100 670 l 100 753 q 146 892 100 831 q 271 989 191 954 q 452 1024 350 1024 l 452 1024 q 632 989 553 1024 q 758 892 712 954 q 804 753 804 831 l 804 753 q 753 608 804 670 q 623 528 702 545 l 623 528 l 623 522 q 733 476 684 512 q 811 388 782 441 q 841 271 841 334 l 841 271 q 791 125 841 190 q 653 24 741 61 q 452 -14 565 -14 m 452 140 l 452 140 q 543 158 504 140 q 603 211 581 177 q 625 288 625 244 l 625 288 q 602 367 625 332 q 541 421 580 401 q 452 441 502 441 l 452 441 q 362 421 401 441 q 301 367 323 401 q 279 288 279 333 l 279 288 q 300 211 279 244 q 361 159 321 178 q 452 140 400 140 m 452 593 l 452 593 q 529 610 495 593 q 582 659 562 628 q 601 730 601 690 l 601 730 q 582 802 601 771 q 529 849 563 832 q 452 866 496 866 l 452 866 q 374 849 408 866 q 321 802 340 832 q 302 730 302 771 l 302 730 q 321 659 302 690 q 374 610 340 628 q 452 593 408 593 "},"9":{"ha":902,"x_min":64,"x_max":839,"o":"m 431 -15 l 431 -15 q 255 24 332 -15 q 131 131 178 64 q 74 281 84 198 l 74 281 l 279 281 q 331 195 291 227 q 431 163 371 163 l 431 163 q 544 203 498 163 q 613 316 589 243 q 636 488 636 389 l 636 488 l 629 488 q 568 413 606 445 q 480 364 530 381 q 376 347 431 347 l 376 347 q 215 389 286 347 q 104 505 144 431 q 64 673 64 578 l 64 673 q 111 856 64 776 q 243 981 159 935 q 440 1025 328 1027 l 440 1025 q 588 999 517 1025 q 716 916 659 973 q 806 764 772 859 q 839 530 839 669 l 839 530 q 810 301 839 401 q 728 130 781 200 q 600 22 675 59 q 431 -15 524 -15 m 439 498 l 439 498 q 508 513 476 498 q 564 552 541 528 q 602 610 588 577 q 615 680 615 642 l 615 680 q 592 770 615 729 q 530 835 570 810 q 440 860 491 860 l 440 860 q 351 836 391 860 q 288 771 311 812 q 265 679 265 730 l 265 679 q 288 587 265 628 q 350 523 311 547 q 439 498 389 498 "},"A":{"ha":1037,"x_min":33,"x_max":1004,"o":"m 262 0 l 33 0 l 378 1010 l 650 1010 l 1004 0 l 774 0 l 612 488 q 552 694 583 582 q 489 939 522 806 l 489 939 l 534 939 q 474 693 502 806 q 418 488 446 580 l 418 488 l 262 0 m 788 235 l 249 235 l 249 397 l 788 397 l 788 235 "},"B":{"ha":919,"x_min":92,"x_max":865,"o":"m 518 0 l 92 0 l 92 1010 l 492 1010 q 678 977 604 1010 q 789 885 752 943 q 826 751 826 827 l 826 751 q 802 647 826 691 q 738 574 779 602 q 644 534 696 546 l 644 534 l 644 524 q 752 491 701 522 q 834 407 802 461 q 865 279 865 353 l 865 279 q 826 136 865 199 q 710 36 787 73 q 518 0 633 0 l 518 0 m 298 444 l 298 170 l 477 170 q 610 205 568 170 q 652 298 652 241 l 652 298 q 632 374 652 341 q 573 426 611 407 q 483 444 535 444 l 483 444 l 298 444 m 298 842 l 298 586 l 462 586 q 541 602 506 586 q 596 647 576 618 q 616 718 616 677 l 616 718 q 577 807 616 772 q 466 842 538 842 l 466 842 l 298 842 "},"C":{"ha":1027,"x_min":64,"x_max":968,"o":"m 533 -14 l 533 -14 q 293 47 399 -14 q 125 224 186 109 q 64 505 64 340 l 64 505 q 125 786 64 669 q 294 963 187 902 q 533 1024 400 1024 l 533 1024 q 693 1000 619 1024 q 825 930 768 976 q 920 817 883 884 q 968 665 956 750 l 968 665 l 758 665 q 732 739 751 707 q 684 794 713 771 q 618 828 655 817 q 537 840 581 840 l 537 840 q 399 801 458 840 q 307 687 340 762 q 274 505 274 612 l 274 505 q 307 321 274 395 q 399 208 340 246 q 536 170 458 170 l 536 170 q 617 182 580 170 q 683 217 654 194 q 732 272 713 239 q 759 346 751 304 l 759 346 l 968 346 q 927 211 960 275 q 838 96 893 146 q 705 16 782 45 q 533 -14 629 -14 "},"D":{"ha":1003,"x_min":92,"x_max":939,"o":"m 447 0 l 447 0 l 185 0 l 185 178 l 437 178 q 601 213 534 178 q 700 320 667 248 q 733 506 733 393 l 733 506 q 700 691 733 618 q 601 798 666 763 q 438 832 535 832 l 438 832 l 180 832 l 180 1010 l 450 1010 q 712 950 602 1010 q 880 776 821 889 q 939 506 939 663 l 939 506 q 880 235 939 348 q 711 61 821 121 q 447 0 601 0 m 92 1010 l 298 1010 l 298 0 l 92 0 l 92 1010 "},"E":{"ha":844,"x_min":92,"x_max":769,"o":"m 769 0 l 92 0 l 92 1010 l 768 1010 l 768 839 l 298 839 l 298 595 l 732 595 l 732 426 l 298 426 l 298 172 l 769 172 l 769 0 "},"F":{"ha":815,"x_min":92,"x_max":756,"o":"m 298 0 l 92 0 l 92 1010 l 756 1010 l 756 839 l 298 839 l 298 557 l 711 557 l 711 388 l 298 388 l 298 0 "},"G":{"ha":1042,"x_min":64,"x_max":975,"o":"m 539 -14 l 539 -14 q 291 49 397 -14 q 124 228 184 112 q 64 504 64 345 l 64 504 q 126 784 64 668 q 295 962 189 901 q 534 1024 401 1024 l 534 1024 q 693 999 620 1024 q 824 929 767 975 q 918 822 882 884 q 965 684 954 760 l 965 684 l 755 684 q 725 750 744 721 q 678 799 705 779 q 615 830 650 819 q 538 840 580 840 l 538 840 q 400 801 460 840 q 307 688 340 762 q 274 506 274 613 l 274 506 q 307 324 274 399 q 399 210 340 249 q 541 170 459 170 l 541 170 q 666 197 614 170 q 746 272 718 223 q 774 387 774 321 l 774 387 l 818 381 l 555 381 l 555 538 l 975 538 l 975 412 q 919 184 975 279 q 764 38 863 89 q 539 -14 666 -14 "},"H":{"ha":1038,"x_min":92,"x_max":946,"o":"m 298 0 l 92 0 l 92 1010 l 298 1010 l 298 602 l 739 602 l 739 1010 l 946 1010 l 946 0 l 739 0 l 739 431 l 298 431 l 298 0 "},"I":{"ha":390,"x_min":92,"x_max":298,"o":"m 92 1010 l 298 1010 l 298 0 l 92 0 l 92 1010 "},"J":{"ha":812,"x_min":46,"x_max":720,"o":"m 385 -14 l 385 -14 q 137 69 227 -14 q 46 304 46 151 l 46 304 l 46 363 l 253 363 l 253 300 q 289 191 253 228 q 385 153 324 153 l 385 153 q 480 191 445 153 q 515 301 515 228 l 515 301 l 515 1010 l 720 1010 l 720 304 q 631 69 720 151 q 385 -14 541 -14 "},"K":{"ha":999,"x_min":92,"x_max":964,"o":"m 510 523 l 244 229 l 244 417 q 305 521 275 473 q 371 616 335 568 q 453 720 407 664 l 453 720 l 701 1010 l 954 1010 l 527 517 l 510 523 m 298 0 l 92 0 l 92 1010 l 298 1010 l 298 734 l 295 477 l 298 376 l 298 0 m 964 0 l 720 0 l 420 456 l 551 610 l 964 0 "},"L":{"ha":785,"x_min":92,"x_max":734,"o":"m 734 0 l 92 0 l 92 1010 l 298 1010 l 298 172 l 734 172 l 734 0 "},"M":{"ha":1294,"x_min":92,"x_max":1203,"o":"m 297 0 l 92 0 l 92 1010 l 409 1010 l 573 547 q 596 463 583 514 q 623 351 610 411 q 649 235 637 292 q 668 138 661 179 l 668 138 l 628 138 q 647 234 635 178 q 673 350 659 290 q 700 462 686 410 q 723 547 713 514 l 723 547 l 884 1010 l 1203 1010 l 1203 0 l 995 0 l 995 476 q 996 559 995 509 q 999 666 997 608 q 1002 781 1000 723 q 1004 890 1003 839 l 1004 890 l 1017 890 q 988 774 1004 834 q 957 658 972 714 q 926 554 941 602 q 902 476 912 507 l 902 476 l 734 0 l 560 0 l 390 476 q 366 554 380 507 q 335 656 351 600 q 303 773 319 713 q 273 890 287 833 l 273 890 l 288 890 q 290 784 289 842 q 293 668 292 726 q 296 561 295 610 q 297 476 297 511 l 297 476 l 297 0 "},"N":{"ha":1059,"x_min":92,"x_max":967,"o":"m 303 0 l 92 0 l 92 1010 l 322 1010 l 642 499 q 691 414 666 460 q 742 311 716 368 q 794 184 768 255 l 794 184 l 773 184 q 765 304 768 241 q 758 427 761 368 q 755 526 755 485 l 755 526 l 755 1010 l 967 1010 l 967 0 l 736 0 l 446 464 q 387 565 414 516 q 330 674 359 614 q 260 816 300 733 l 260 816 l 286 816 q 294 675 290 743 q 301 554 298 608 q 303 465 303 499 l 303 465 l 303 0 "},"O":{"ha":1070,"x_min":64,"x_max":1006,"o":"m 535 -14 l 535 -14 q 295 47 401 -14 q 126 224 188 109 q 64 505 64 340 l 64 505 q 126 786 64 669 q 295 963 188 902 q 535 1024 401 1024 l 535 1024 q 776 963 669 1024 q 944 786 882 902 q 1006 505 1006 669 l 1006 505 q 944 224 1006 340 q 776 47 882 109 q 535 -14 669 -14 m 535 170 l 535 170 q 672 209 614 170 q 764 322 731 247 q 796 505 796 397 l 796 505 q 764 689 796 614 q 672 802 731 764 q 535 840 614 840 l 535 840 q 398 802 457 840 q 307 688 339 763 q 274 505 274 613 l 274 505 q 307 322 274 397 q 398 209 339 248 q 535 170 457 170 "},"P":{"ha":900,"x_min":92,"x_max":847,"o":"m 298 0 l 92 0 l 92 1010 l 486 1010 q 682 967 601 1010 q 805 846 762 923 q 847 669 847 769 l 847 669 q 804 493 847 569 q 679 373 761 416 q 481 330 597 330 l 481 330 l 227 330 l 227 497 l 448 497 q 552 519 511 497 q 613 580 593 541 q 633 669 633 618 l 633 669 q 613 759 633 720 q 552 818 593 797 q 447 840 511 840 l 447 840 l 298 840 l 298 0 "},"Q":{"ha":1079,"x_min":64,"x_max":1006,"o":"m 629 140 l 471 347 l 648 347 l 742 227 l 825 130 l 994 -84 l 801 -84 l 686 60 l 629 140 m 535 -14 l 535 -14 q 295 47 401 -14 q 126 224 188 109 q 64 505 64 340 l 64 505 q 126 786 64 669 q 295 963 188 902 q 535 1024 401 1024 l 535 1024 q 776 963 669 1024 q 944 786 882 902 q 1006 505 1006 669 l 1006 505 q 944 224 1006 340 q 776 47 882 109 q 535 -14 669 -14 m 535 170 l 535 170 q 672 209 614 170 q 764 322 731 247 q 796 505 796 397 l 796 505 q 764 689 796 614 q 672 802 731 764 q 535 840 614 840 l 535 840 q 398 802 457 840 q 307 688 339 763 q 274 505 274 613 l 274 505 q 307 322 274 397 q 398 209 339 248 q 535 170 457 170 "},"R":{"ha":912,"x_min":92,"x_max":883,"o":"m 298 0 l 92 0 l 92 1010 l 486 1010 q 682 970 601 1010 q 805 855 762 929 q 847 682 847 781 l 847 682 q 804 510 847 582 q 679 399 761 437 q 481 361 597 361 l 481 361 l 214 361 l 214 528 l 448 528 q 552 546 511 528 q 613 597 593 563 q 633 682 633 631 l 633 682 q 613 768 633 733 q 552 821 593 803 q 447 840 511 840 l 447 840 l 298 840 l 298 0 m 883 0 l 654 0 l 408 460 l 632 460 l 883 0 "},"S":{"ha":909,"x_min":58,"x_max":852,"o":"m 462 -15 l 462 -15 q 251 22 340 -15 q 111 133 161 60 q 58 313 60 206 l 58 313 l 259 313 q 290 228 263 262 q 360 177 316 194 q 460 160 404 160 l 460 160 q 556 176 515 160 q 621 221 597 192 q 644 289 644 250 l 644 289 q 623 347 644 323 q 564 387 602 370 q 469 417 525 404 l 469 417 l 358 445 q 157 543 230 476 q 85 720 85 610 l 85 720 q 134 880 85 811 q 269 986 183 948 q 465 1024 355 1024 l 465 1024 q 660 986 576 1024 q 790 879 743 947 q 838 722 837 811 l 838 722 l 638 722 q 586 817 633 783 q 463 850 540 850 l 463 850 q 373 835 410 850 q 316 793 336 820 q 297 733 297 767 l 297 733 q 319 671 297 696 q 379 631 342 646 q 458 606 416 616 l 458 606 l 550 583 q 669 545 614 569 q 765 485 724 520 q 829 400 806 449 q 852 288 852 351 l 852 288 q 806 128 852 196 q 672 22 760 60 q 462 -15 585 -15 "},"T":{"ha":927,"x_min":51,"x_max":876,"o":"m 360 839 l 51 839 l 51 1010 l 876 1010 l 876 839 l 568 839 l 568 0 l 360 0 l 360 839 "},"U":{"ha":1017,"x_min":92,"x_max":926,"o":"m 508 -14 l 508 -14 q 289 32 383 -14 q 143 161 195 79 q 92 355 92 244 l 92 355 l 92 1010 l 298 1010 l 298 372 q 325 267 298 313 q 398 195 351 221 q 508 169 445 169 l 508 169 q 619 195 572 169 q 692 267 666 221 q 718 372 718 313 l 718 372 l 718 1010 l 926 1010 l 926 355 q 873 161 926 244 q 727 32 821 79 q 508 -14 633 -14 "},"V":{"ha":1037,"x_min":33,"x_max":1004,"o":"m 658 0 l 387 0 l 33 1010 l 263 1010 l 425 523 q 484 320 454 431 q 547 77 513 209 l 547 77 l 502 77 q 563 320 534 210 q 619 523 591 431 l 619 523 l 775 1010 l 1004 1010 l 658 0 "},"W":{"ha":1441,"x_min":33,"x_max":1408,"o":"m 541 0 l 304 0 l 33 1010 l 259 1010 l 376 513 q 402 380 391 451 q 426 238 414 309 q 448 100 437 166 l 448 100 l 412 100 q 436 238 424 166 q 461 380 448 309 q 490 513 474 451 l 490 513 l 613 1010 l 828 1010 l 951 513 q 979 380 966 451 q 1005 238 992 309 q 1029 100 1017 166 l 1029 100 l 991 100 q 1014 238 1003 166 q 1038 380 1025 309 q 1064 513 1050 451 l 1064 513 l 1181 1010 l 1408 1010 l 1136 0 l 900 0 l 766 517 q 729 703 744 603 q 694 910 713 804 l 694 910 l 746 910 q 712 707 725 806 q 675 517 699 608 l 675 517 l 541 0 "},"X":{"ha":1025,"x_min":35,"x_max":991,"o":"m 274 0 l 35 0 l 452 593 l 452 436 l 67 1010 l 307 1010 l 418 841 q 469 754 449 793 q 506 681 489 716 q 543 607 522 645 l 543 607 l 488 607 q 525 680 508 645 q 562 754 542 715 q 614 841 583 793 l 614 841 l 726 1010 l 961 1010 l 583 448 l 583 597 l 991 0 l 745 0 l 605 212 q 560 284 577 254 q 529 341 543 314 q 496 401 515 368 l 496 401 l 529 401 q 497 341 511 368 q 465 284 483 315 q 419 212 448 254 l 419 212 l 274 0 "},"Y":{"ha":1015,"x_min":33,"x_max":982,"o":"m 614 0 l 408 0 l 408 380 l 33 1010 l 275 1010 l 446 696 q 493 602 473 648 q 535 490 513 555 l 535 490 l 490 490 q 530 602 511 555 q 575 696 550 649 l 575 696 l 741 1010 l 982 1010 l 614 380 l 614 0 "},"Z":{"ha":922,"x_min":76,"x_max":846,"o":"m 846 0 l 78 0 l 78 124 l 488 703 q 571 809 526 755 q 663 914 616 862 l 663 914 l 678 847 q 542 840 610 841 q 406 839 474 839 l 406 839 l 76 839 l 76 1010 l 844 1010 l 844 886 l 442 317 q 355 207 402 262 q 260 96 308 151 l 260 96 l 244 163 q 386 171 315 170 q 528 172 457 172 l 528 172 l 846 172 l 846 0 "},"a":{"ha":806,"x_min":46,"x_max":720,"o":"m 298 -15 l 298 -15 q 169 11 227 -15 q 79 86 112 36 q 46 212 46 137 l 46 212 q 70 318 46 275 q 133 387 93 361 q 225 426 174 412 q 332 445 276 439 l 332 445 q 438 457 398 452 q 497 476 479 463 q 516 513 516 488 l 516 513 l 516 516 q 503 571 516 549 q 462 605 489 593 q 397 617 435 617 l 397 617 q 329 605 358 617 q 281 574 300 593 q 254 530 263 554 l 254 530 l 68 560 q 133 673 87 627 q 246 743 178 719 q 398 768 313 768 l 398 768 q 517 753 459 768 q 620 708 574 739 q 693 628 666 677 q 720 511 720 579 l 720 511 l 720 0 l 527 0 l 527 105 l 520 105 q 471 43 502 70 q 398 1 441 16 q 298 -15 355 -15 m 356 128 l 356 128 q 440 147 404 128 q 497 199 477 166 q 517 271 517 231 l 517 271 l 517 353 q 490 341 509 347 q 450 332 472 336 q 406 324 427 328 q 367 319 384 321 l 367 319 q 301 301 330 313 q 257 269 273 289 q 241 218 241 249 l 241 218 q 256 169 241 189 q 297 138 271 149 q 356 128 323 128 "},"b":{"ha":876,"x_min":87,"x_max":820,"o":"m 511 -13 l 511 -13 q 407 8 450 -13 q 337 60 364 29 q 296 121 311 91 l 296 121 l 287 121 l 287 0 l 87 0 l 87 1010 l 290 1010 l 290 631 l 296 631 q 337 692 311 661 q 406 746 363 724 q 513 768 448 768 l 513 768 q 667 724 597 768 q 778 594 736 681 q 820 378 820 507 l 820 378 q 779 164 820 252 q 669 32 739 77 q 511 -13 599 -13 m 449 151 l 449 151 q 538 180 502 151 q 593 260 574 209 q 612 378 612 312 l 612 378 q 593 496 612 445 q 538 576 574 547 q 449 605 503 605 l 449 605 q 360 577 397 605 q 304 498 323 549 q 286 378 286 448 l 286 378 q 305 259 286 310 q 361 179 324 208 q 449 151 397 151 "},"c":{"ha":817,"x_min":55,"x_max":764,"o":"m 426 -15 l 426 -15 q 228 34 311 -15 q 100 171 145 83 q 55 376 55 259 l 55 376 q 100 582 55 494 q 228 719 145 669 q 426 768 311 768 l 426 768 q 550 750 493 768 q 651 700 607 732 q 724 621 695 667 q 763 515 752 574 l 763 515 l 574 480 q 555 533 568 510 q 524 573 542 557 q 481 599 505 590 q 428 608 457 608 l 428 608 q 337 578 374 608 q 281 497 300 549 q 262 376 262 445 l 262 376 q 281 257 262 309 q 337 175 300 205 q 428 145 374 145 l 428 145 q 481 154 457 145 q 525 181 506 163 q 557 222 544 198 q 575 277 570 247 l 575 277 l 764 243 q 725 135 753 182 q 652 54 696 88 q 551 3 608 20 q 426 -15 494 -15 "},"d":{"ha":876,"x_min":55,"x_max":789,"o":"m 363 -13 l 363 -13 q 207 32 277 -13 q 96 164 136 77 q 55 378 55 252 l 55 378 q 97 594 55 507 q 209 724 139 681 q 363 768 279 768 l 363 768 q 470 746 427 768 q 539 692 513 724 q 578 631 566 661 l 578 631 l 585 631 l 585 1010 l 789 1010 l 789 0 l 589 0 l 589 121 l 578 121 q 538 60 565 91 q 469 8 511 29 q 363 -13 426 -13 m 427 151 l 427 151 q 515 179 478 151 q 570 259 551 208 q 589 378 589 310 l 589 378 q 571 498 589 448 q 515 577 552 549 q 427 605 479 605 l 427 605 q 337 576 373 605 q 282 496 300 547 q 264 378 264 445 l 264 378 q 282 260 264 312 q 337 180 301 209 q 427 151 374 151 "},"e":{"ha":827,"x_min":55,"x_max":775,"o":"m 429 -15 l 429 -15 q 229 33 313 -15 q 100 168 145 80 q 55 375 55 255 l 55 375 q 100 581 55 492 q 227 718 144 669 q 419 768 309 768 l 419 768 q 558 744 494 768 q 671 672 623 720 q 748 553 720 625 q 775 383 775 481 l 775 383 l 775 326 l 138 326 l 138 454 l 675 454 l 581 420 q 563 523 581 479 q 509 590 545 566 q 421 614 473 614 l 421 614 q 331 590 368 614 q 275 524 294 566 q 256 429 256 482 l 256 429 l 256 338 q 278 228 256 273 q 340 161 300 183 q 433 138 380 138 l 433 138 q 498 149 469 138 q 548 179 527 159 q 579 228 568 199 l 579 228 l 764 193 q 700 84 745 131 q 586 11 654 37 q 429 -15 518 -15 "},"f":{"ha":553,"x_min":14,"x_max":539,"o":"m 14 758 l 509 758 l 509 603 l 14 603 l 14 758 m 350 0 l 147 0 l 147 817 q 179 951 147 897 q 267 1031 212 1004 q 393 1058 323 1058 l 393 1058 q 481 1050 441 1058 q 539 1037 521 1042 l 539 1037 l 503 884 q 472 890 490 887 q 435 894 455 894 l 435 894 q 369 872 389 894 q 350 810 350 850 l 350 810 l 350 0 "},"g":{"ha":878,"x_min":55,"x_max":791,"o":"m 424 -300 l 424 -300 q 258 -276 329 -300 q 144 -210 188 -252 q 83 -114 100 -168 l 83 -114 l 258 -65 q 287 -106 267 -86 q 340 -139 307 -126 q 422 -152 374 -152 l 422 -152 q 545 -116 500 -152 q 589 -5 589 -81 l 589 -5 l 589 134 l 574 134 q 534 75 560 104 q 467 29 509 47 q 363 11 425 11 l 363 11 q 208 51 278 11 q 97 173 138 91 q 55 380 55 255 l 55 380 q 97 595 55 509 q 210 724 140 681 q 364 768 280 768 l 364 768 q 471 746 428 768 q 542 693 515 725 q 582 631 568 661 l 582 631 l 591 631 l 591 758 l 791 758 l 791 6 q 744 -164 791 -96 q 614 -266 696 -232 q 424 -300 531 -300 m 427 165 l 427 165 q 516 191 479 165 q 571 266 552 217 q 590 382 590 314 l 590 382 q 571 499 590 449 q 516 577 552 549 q 427 605 479 605 l 427 605 q 337 576 374 605 q 282 497 301 547 q 264 382 264 447 l 264 382 q 282 267 264 315 q 338 192 301 218 q 427 165 374 165 "},"h":{"ha":865,"x_min":87,"x_max":779,"o":"m 290 439 l 290 439 l 290 0 l 87 0 l 87 1010 l 286 1010 l 286 569 l 270 569 q 360 716 300 664 q 517 768 421 768 l 517 768 q 655 733 596 768 q 746 635 713 699 q 779 482 779 571 l 779 482 l 779 0 l 574 0 l 574 447 q 538 557 574 517 q 437 597 502 597 l 437 597 q 361 579 395 597 q 309 525 328 560 q 290 439 290 490 "},"i":{"ha":376,"x_min":77,"x_max":300,"o":"m 290 0 l 87 0 l 87 758 l 290 758 l 290 0 m 189 857 l 189 857 q 110 888 142 857 q 77 962 77 918 l 77 962 q 110 1036 77 1005 q 189 1066 142 1066 l 189 1066 q 268 1036 235 1066 q 300 962 300 1006 l 300 962 q 268 888 300 918 q 189 857 235 857 "},"j":{"ha":376,"x_min":-34,"x_max":300,"o":"m 86 -36 l 86 758 l 290 758 l 290 -39 q 256 -179 290 -125 q 159 -258 222 -233 q 7 -283 96 -283 l 7 -283 l -34 -283 l -34 -123 l -7 -123 q 65 -101 45 -123 q 86 -36 86 -79 l 86 -36 m 189 857 l 189 857 q 110 888 142 857 q 77 962 77 918 l 77 962 q 110 1036 77 1005 q 189 1066 142 1066 l 189 1066 q 268 1036 235 1066 q 300 962 300 1006 l 300 962 q 268 888 300 918 q 189 857 235 857 "},"k":{"ha":806,"x_min":87,"x_max":800,"o":"m 410 378 l 271 222 l 271 467 l 302 467 l 550 758 l 785 758 l 458 378 l 410 378 m 290 0 l 87 0 l 87 1010 l 290 1010 l 290 0 m 800 0 l 560 0 l 332 332 l 469 477 l 800 0 "},"l":{"ha":376,"x_min":87,"x_max":290,"o":"m 87 1010 l 290 1010 l 290 0 l 87 0 l 87 1010 "},"m":{"ha":1267,"x_min":87,"x_max":1181,"o":"m 290 0 l 87 0 l 87 758 l 275 758 l 286 570 l 271 570 q 322 684 288 640 q 403 749 357 728 q 500 770 449 770 l 500 770 q 632 718 582 770 q 706 557 682 666 l 706 557 l 682 557 q 738 677 699 630 q 828 747 776 724 q 939 770 881 770 l 939 770 q 1063 739 1008 770 q 1149 651 1118 709 q 1181 511 1181 594 l 1181 511 l 1181 0 l 977 0 l 977 473 q 942 568 977 537 q 857 600 907 600 l 857 600 q 790 583 819 600 q 747 536 762 566 q 732 467 732 507 l 732 467 l 732 0 l 535 0 l 535 478 q 502 567 535 534 q 417 600 469 600 l 417 600 q 352 583 381 600 q 307 535 323 567 q 290 458 290 504 l 290 458 l 290 0 "},"n":{"ha":865,"x_min":87,"x_max":778,"o":"m 290 439 l 290 439 l 290 0 l 87 0 l 87 758 l 279 758 l 282 569 l 270 569 q 360 716 300 664 q 517 768 421 768 l 517 768 q 655 733 596 768 q 746 635 713 699 q 778 482 778 571 l 778 482 l 778 0 l 574 0 l 574 447 q 538 557 574 517 q 437 597 502 597 l 437 597 q 361 579 395 597 q 309 525 328 560 q 290 439 290 490 "},"o":{"ha":852,"x_min":55,"x_max":797,"o":"m 426 -15 l 426 -15 q 229 34 312 -15 q 100 171 145 83 q 55 376 55 259 l 55 376 q 100 582 55 494 q 229 719 145 669 q 426 768 312 768 l 426 768 q 624 719 541 768 q 752 582 707 669 q 797 376 797 494 l 797 376 q 752 171 797 259 q 624 34 707 83 q 426 -15 541 -15 m 426 145 l 426 145 q 517 175 480 145 q 572 258 553 205 q 590 376 590 311 l 590 376 q 572 496 590 444 q 517 578 553 548 q 426 608 480 608 l 426 608 q 335 578 372 608 q 281 496 299 548 q 262 376 262 444 l 262 376 q 281 258 262 311 q 335 175 299 205 q 426 145 372 145 "},"p":{"ha":876,"x_min":87,"x_max":820,"o":"m 290 -283 l 87 -283 l 87 758 l 287 758 l 287 631 l 296 631 q 337 692 311 661 q 406 746 363 724 q 513 768 448 768 l 513 768 q 667 724 597 768 q 778 594 736 681 q 820 378 820 507 l 820 378 q 779 164 820 252 q 669 32 739 77 q 511 -13 599 -13 l 511 -13 q 407 8 450 -13 q 337 60 364 29 q 296 121 311 91 l 296 121 l 290 121 l 290 -283 m 449 151 l 449 151 q 538 180 502 151 q 593 260 574 209 q 612 378 612 312 l 612 378 q 593 496 612 445 q 538 576 574 547 q 449 605 503 605 l 449 605 q 360 577 397 605 q 304 498 323 549 q 286 378 286 448 l 286 378 q 305 259 286 310 q 361 179 324 208 q 449 151 397 151 "},"q":{"ha":876,"x_min":55,"x_max":789,"o":"m 789 758 l 789 -283 l 585 -283 l 585 121 l 578 121 q 538 60 565 91 q 469 8 511 29 q 363 -13 426 -13 l 363 -13 q 207 32 277 -13 q 96 164 136 77 q 55 378 55 252 l 55 378 q 97 594 55 507 q 209 724 139 681 q 363 768 279 768 l 363 768 q 470 746 427 768 q 539 692 513 724 q 578 631 566 661 l 578 631 l 589 631 l 589 758 l 789 758 m 427 151 l 427 151 q 515 179 478 151 q 570 259 551 208 q 589 378 589 310 l 589 378 q 571 498 589 448 q 515 577 552 549 q 427 605 479 605 l 427 605 q 337 576 373 605 q 282 496 300 547 q 264 378 264 445 l 264 378 q 282 260 264 312 q 337 180 301 209 q 427 151 374 151 "},"r":{"ha":566,"x_min":87,"x_max":541,"o":"m 290 0 l 87 0 l 87 758 l 283 758 l 283 626 l 292 626 q 362 732 313 696 q 475 768 411 768 l 475 768 q 509 767 490 768 q 541 762 527 765 l 541 762 l 541 580 q 501 587 527 585 q 452 590 475 590 l 452 590 q 369 570 406 590 q 311 514 332 550 q 290 431 290 479 l 290 431 l 290 0 "},"s":{"ha":778,"x_min":53,"x_max":727,"o":"m 388 -15 l 388 -15 q 226 11 296 -15 q 111 87 155 37 q 53 208 66 137 l 53 208 l 242 240 q 294 161 257 187 q 394 134 332 134 l 394 134 q 486 156 452 134 q 519 212 519 178 l 519 212 q 495 261 519 242 q 422 290 471 280 l 422 290 l 291 317 q 127 394 181 340 q 73 532 73 448 l 73 532 q 113 658 73 606 q 224 739 153 711 q 391 768 295 768 l 391 768 q 547 743 481 768 q 653 673 612 718 q 707 566 694 627 l 707 566 l 527 534 q 483 597 515 572 q 394 622 450 622 l 394 622 q 310 601 344 622 q 276 545 276 580 l 276 545 q 298 496 276 516 q 374 466 320 477 l 374 466 l 510 439 q 673 366 620 416 q 727 234 727 315 l 727 234 q 684 103 727 159 q 564 16 640 47 q 388 -15 488 -15 "},"t":{"ha":509,"x_min":14,"x_max":484,"o":"m 14 758 l 463 758 l 463 603 l 14 603 l 14 758 m 118 204 l 118 939 l 321 939 l 321 222 q 337 169 321 186 q 391 151 353 151 l 391 151 q 423 154 402 151 q 455 160 444 157 l 455 160 l 484 7 q 417 -7 450 -3 q 353 -11 383 -11 l 353 -11 q 178 45 239 -11 q 118 204 118 100 l 118 204 "},"u":{"ha":865,"x_min":87,"x_max":779,"o":"m 348 -9 l 348 -9 q 210 25 269 -9 q 119 123 151 59 q 87 276 87 187 l 87 276 l 87 758 l 290 758 l 290 311 q 327 201 290 241 q 427 161 363 161 l 427 161 q 504 179 471 161 q 556 234 537 198 q 574 319 574 269 l 574 319 l 574 758 l 779 758 l 779 0 l 586 0 l 583 189 l 595 189 q 504 42 565 94 q 348 -9 442 -9 "},"v":{"ha":833,"x_min":21,"x_max":812,"o":"m 532 0 l 300 0 l 21 758 l 237 758 l 365 365 q 405 216 388 291 q 441 60 422 140 l 441 60 l 397 60 q 432 216 415 140 q 472 365 449 291 l 472 365 l 598 758 l 812 758 l 532 0 "},"w":{"ha":1181,"x_min":21,"x_max":1160,"o":"m 452 0 l 245 0 l 21 758 l 235 758 l 300 478 q 337 314 317 403 q 373 119 357 226 l 373 119 l 350 119 q 389 312 368 223 q 428 478 410 401 l 428 478 l 497 758 l 684 758 l 752 478 q 790 313 769 401 q 829 119 811 224 l 829 119 l 806 119 q 841 312 823 224 q 878 478 860 401 l 878 478 l 943 758 l 1160 758 l 935 0 l 728 0 l 644 292 q 619 390 631 336 q 595 498 607 443 q 572 602 584 553 l 572 602 l 608 602 q 584 498 596 553 q 560 389 572 443 q 536 292 548 336 l 536 292 l 452 0 "},"x":{"ha":806,"x_min":28,"x_max":777,"o":"m 244 0 l 28 0 l 322 469 l 321 310 l 43 758 l 263 758 l 332 639 q 390 523 364 580 q 444 411 416 465 l 444 411 l 366 411 q 420 522 394 465 q 479 639 446 580 l 479 639 l 551 758 l 766 758 l 483 308 l 483 465 l 777 0 l 559 0 l 475 142 q 415 258 441 201 q 360 369 388 316 l 360 369 l 438 369 q 386 258 412 316 q 328 142 361 201 l 328 142 l 244 0 "},"y":{"ha":836,"x_min":21,"x_max":814,"o":"m 81 -269 l 81 -269 l 128 -115 l 153 -121 q 226 -127 194 -132 q 277 -102 258 -123 q 300 -43 296 -81 l 300 -43 l 306 -2 l 21 758 l 237 758 l 365 365 q 402 216 388 290 q 436 60 417 141 l 436 60 l 389 60 q 425 216 407 141 q 468 365 444 291 l 468 365 l 601 758 l 814 758 l 492 -90 q 433 -195 469 -151 q 344 -264 397 -240 q 214 -289 290 -289 l 214 -289 q 138 -283 174 -289 q 81 -269 103 -277 "},"z":{"ha":795,"x_min":81,"x_max":714,"o":"m 714 0 l 81 0 l 81 123 l 455 589 l 455 594 l 93 594 l 93 758 l 701 758 l 701 623 l 349 170 l 349 164 l 714 164 l 714 0 "}," ":{"ha":329,"x_min":0,"x_max":0,"o":""},".":{"ha":464,"x_min":115,"x_max":349,"o":"m 232 -13 l 232 -13 q 149 21 182 -13 q 115 104 115 54 l 115 104 q 149 187 115 153 q 232 220 182 220 l 232 220 q 315 187 281 220 q 349 104 349 153 l 349 104 q 315 21 349 54 q 232 -13 281 -13 "},",":{"ha":464,"x_min":81,"x_max":344,"o":"m 219 -268 l 81 -268 l 140 153 l 344 153 l 219 -268 "},":":{"ha":464,"x_min":115,"x_max":349,"o":"m 232 -13 l 232 -13 q 149 21 182 -13 q 115 104 115 54 l 115 104 q 149 187 115 153 q 232 220 182 220 l 232 220 q 315 187 281 220 q 349 104 349 153 l 349 104 q 315 21 349 54 q 232 -13 281 -13 m 232 490 l 232 490 q 149 524 182 490 q 115 607 115 557 l 115 607 q 149 690 115 656 q 232 724 182 724 l 232 724 q 315 690 281 724 q 349 607 349 656 l 349 607 q 315 524 349 557 q 232 490 281 490 "},";":{"ha":476,"x_min":81,"x_max":362,"o":"m 219 -268 l 81 -268 l 140 153 l 344 153 l 219 -268 m 244 490 l 244 490 q 161 524 195 490 q 127 607 127 557 l 127 607 q 161 690 127 656 q 244 724 195 724 l 244 724 q 328 690 294 724 q 361 607 361 656 l 361 607 q 328 524 361 557 q 244 490 294 490 "},"!":{"ha":469,"x_min":115,"x_max":355,"o":"m 329 320 l 140 320 l 125 1010 l 344 1010 l 329 320 m 235 -13 l 235 -13 q 148 19 182 -13 q 115 102 115 51 l 115 102 q 148 185 115 153 q 235 217 182 217 l 235 217 q 322 185 288 217 q 355 102 355 153 l 355 102 q 322 19 355 51 q 235 -13 288 -13 "},"?":{"ha":777,"x_min":54,"x_max":711,"o":"m 446 311 l 264 311 l 264 327 q 280 463 264 413 q 324 542 295 512 q 395 596 353 571 l 395 596 q 471 661 440 626 q 503 745 503 695 l 503 745 q 486 806 503 780 q 441 846 469 831 q 379 860 414 860 l 379 860 q 317 846 347 860 q 270 804 288 831 q 249 734 251 776 l 249 734 l 54 734 q 99 896 55 832 q 218 992 144 960 q 380 1024 292 1024 l 380 1024 q 552 991 477 1024 q 669 898 627 959 q 711 751 711 837 l 711 751 q 671 607 711 665 q 560 508 630 549 l 560 508 q 496 461 522 485 q 458 407 471 438 q 446 327 446 376 l 446 327 l 446 311 m 356 -13 l 356 -13 q 269 19 303 -13 q 235 102 235 51 l 235 102 q 269 185 235 153 q 356 217 303 217 l 356 217 q 443 185 410 217 q 476 102 476 153 l 476 102 q 443 19 476 51 q 356 -13 410 -13 "},"_":{"ha":661,"x_min":0,"x_max":661,"o":"m 0 0 l 661 0 l 661 -157 l 0 -157 l 0 0 "},"-":{"ha":650,"x_min":95,"x_max":555,"o":"m 95 497 l 555 497 l 555 334 l 95 334 l 95 497 "},"–":{"ha":694,"x_min":0,"x_max":694,"o":"m 0 497 l 694 497 l 694 334 l 0 334 l 0 497 "},"—":{"ha":1389,"x_min":0,"x_max":1389,"o":"m 0 497 l 1389 497 l 1389 334 l 0 334 l 0 497 "},"'":{"ha":471,"x_min":137,"x_max":333,"o":"m 313 590 l 158 590 l 137 1010 l 333 1010 l 313 590 "},"\"":{"ha":766,"x_min":137,"x_max":629,"o":"m 313 590 l 158 590 l 137 1010 l 333 1010 l 313 590 m 608 590 l 454 590 l 433 1010 l 629 1010 l 608 590 "},"(":{"ha":524,"x_min":115,"x_max":479,"o":"m 115 412 l 115 412 q 137 646 115 524 q 199 879 160 767 q 290 1072 239 991 l 290 1072 l 479 1072 q 395 853 430 967 q 341 626 359 739 q 322 412 322 513 l 322 412 q 338 233 322 323 q 389 41 354 143 q 479 -189 423 -62 l 479 -189 l 290 -189 q 159 107 203 -46 q 115 412 115 260 "},")":{"ha":524,"x_min":45,"x_max":409,"o":"m 234 -189 l 45 -189 q 136 42 102 -60 q 186 235 170 145 q 201 412 201 324 l 201 412 q 183 626 201 513 q 129 853 164 739 q 45 1072 94 967 l 45 1072 l 234 1072 q 325 879 286 991 q 387 645 364 767 q 409 412 409 524 l 409 412 q 364 105 409 258 q 234 -189 319 -47 l 234 -189 "},"[":{"ha":524,"x_min":123,"x_max":454,"o":"m 454 -189 l 123 -189 l 123 1072 l 454 1072 l 454 918 l 319 918 l 319 -35 l 454 -35 l 454 -189 "},"]":{"ha":524,"x_min":69,"x_max":401,"o":"m 401 -189 l 69 -189 l 69 -35 l 204 -35 l 204 918 l 69 918 l 69 1072 l 401 1072 l 401 -189 "},"{":{"ha":651,"x_min":95,"x_max":583,"o":"m 95 431 l 95 431 l 95 533 q 213 567 180 533 q 246 677 246 602 l 246 677 l 246 796 q 270 941 246 886 q 339 1024 294 996 q 446 1062 384 1052 q 583 1072 508 1072 l 583 1072 l 583 918 q 465 884 494 918 q 435 777 435 850 l 435 777 l 435 629 q 422 556 435 591 q 373 492 409 520 q 271 448 338 465 q 95 431 204 431 m 583 -36 l 583 -189 q 446 -179 508 -189 q 339 -141 384 -170 q 270 -58 294 -113 q 246 87 246 -3 l 246 87 l 246 205 q 213 315 246 281 q 95 350 180 350 l 95 350 l 95 452 q 271 435 204 452 q 373 390 338 418 q 422 327 409 362 q 435 254 435 291 l 435 254 l 435 106 q 465 -1 435 34 q 583 -36 494 -36 l 583 -36 m 275 349 l 95 349 l 95 534 l 275 534 l 275 349 "},"}":{"ha":651,"x_min":69,"x_max":556,"o":"m 556 533 l 556 431 q 380 448 448 431 q 278 492 313 465 q 230 556 242 520 q 217 629 217 591 l 217 629 l 217 777 q 187 884 217 850 q 69 918 157 918 l 69 918 l 69 1072 q 205 1062 144 1072 q 312 1024 267 1052 q 381 941 357 996 q 405 796 405 886 l 405 796 l 405 677 q 438 567 405 602 q 556 533 472 533 l 556 533 m 69 -189 l 69 -189 l 69 -36 q 187 -1 157 -36 q 217 106 217 34 l 217 106 l 217 254 q 230 327 217 291 q 278 390 242 362 q 380 435 313 418 q 556 452 448 452 l 556 452 l 556 350 q 438 315 471 349 q 405 205 405 281 l 405 205 l 405 87 q 381 -58 405 -3 q 312 -141 357 -113 q 205 -179 267 -170 q 69 -189 144 -189 m 556 533 l 556 350 l 376 349 l 376 534 l 556 533 "},"&":{"ha":933,"x_min":55,"x_max":927,"o":"m 393 -15 l 393 -15 q 212 23 288 -15 q 96 125 136 61 q 55 267 55 189 l 55 267 q 79 374 55 328 q 146 459 103 420 q 245 536 189 498 l 245 536 l 438 664 q 476 695 459 677 q 503 732 493 712 q 513 775 513 752 l 513 775 q 488 834 513 810 q 418 859 464 859 l 418 859 q 366 847 389 859 q 332 814 344 836 q 319 765 319 793 l 319 765 q 336 699 319 732 q 382 630 353 666 q 449 550 411 594 l 449 550 l 927 0 l 713 0 l 315 446 q 234 543 273 494 q 169 647 195 591 q 143 767 143 702 l 143 767 q 177 898 143 840 q 273 989 212 956 q 417 1023 335 1023 l 417 1023 q 556 990 498 1023 q 646 904 614 958 q 678 785 678 850 l 678 785 q 662 696 678 738 q 615 620 645 655 q 544 554 585 585 l 544 554 l 338 406 q 275 345 296 375 q 254 275 254 315 l 254 275 q 272 208 254 237 q 323 164 290 180 q 399 149 355 149 l 399 149 q 507 174 454 149 q 603 243 559 198 q 671 351 646 288 q 696 490 696 414 l 696 490 l 867 490 q 846 322 867 396 q 791 195 826 249 q 711 108 755 142 l 711 108 l 659 74 q 532 7 603 28 q 393 -15 460 -15 "},"/":{"ha":539,"x_min":19,"x_max":521,"o":"m 345 1058 l 521 1058 l 195 -152 l 19 -152 l 345 1058 "},"\\":{"ha":539,"x_min":19,"x_max":521,"o":"m 521 -152 l 345 -152 l 19 1058 l 195 1058 l 521 -152 "},"+":{"ha":943,"x_min":124,"x_max":819,"o":"m 557 56 l 385 56 l 385 751 l 557 751 l 557 56 m 819 322 l 124 322 l 124 485 l 819 485 l 819 322 "},"*":{"ha":777,"x_min":109,"x_max":667,"o":"m 453 442 l 323 442 l 336 635 l 174 527 l 109 641 l 283 726 l 109 810 l 174 926 l 336 818 l 323 1010 l 453 1010 l 441 818 l 602 926 l 667 810 l 494 726 l 667 641 l 602 527 l 441 635 l 453 442 "},"=":{"ha":943,"x_min":134,"x_max":810,"o":"m 810 481 l 134 481 l 134 651 l 810 651 l 810 481 m 810 156 l 134 156 l 134 327 l 810 327 l 810 156 "},"<":{"ha":943,"x_min":113,"x_max":804,"o":"m 804 13 l 113 319 l 113 487 l 804 795 l 804 599 l 328 405 l 334 416 l 334 391 l 328 401 l 804 208 l 804 13 "},">":{"ha":943,"x_min":139,"x_max":830,"o":"m 830 487 l 830 319 l 139 13 l 139 208 l 616 401 l 610 391 l 610 416 l 616 405 l 139 599 l 139 795 l 830 487 "},"@":{"ha":1411,"x_min":64,"x_max":1348,"o":"m 720 -290 l 720 -290 q 443 -248 564 -290 q 236 -123 321 -205 q 107 78 151 -41 q 64 350 64 197 l 64 350 q 106 616 64 496 q 231 823 149 736 q 436 956 314 909 q 715 1003 557 1003 l 715 1003 q 979 959 862 1003 q 1178 837 1096 916 q 1304 652 1261 758 q 1348 421 1348 546 l 1348 421 q 1332 263 1348 336 q 1283 135 1316 190 q 1196 49 1249 80 q 1067 18 1143 18 l 1067 18 q 983 30 1023 18 q 918 67 944 42 q 884 132 891 93 l 884 132 l 879 132 q 807 49 861 81 q 674 18 754 18 l 674 18 q 516 60 581 18 q 417 179 451 103 q 382 357 382 256 l 382 357 q 420 533 382 456 q 524 652 457 609 q 678 695 591 695 l 678 695 q 792 671 745 695 q 860 610 840 648 l 860 610 l 867 610 l 867 680 l 1007 680 l 1007 222 q 1022 170 1007 189 q 1068 151 1037 151 l 1068 151 q 1136 179 1111 151 q 1172 263 1161 206 q 1183 408 1183 319 l 1183 408 q 1154 588 1183 507 q 1069 727 1126 669 q 926 817 1012 785 q 727 848 841 848 l 727 848 q 515 815 607 848 q 361 718 423 781 q 267 562 298 654 q 235 354 235 470 l 235 354 q 268 145 235 236 q 363 -8 300 54 q 520 -102 427 -71 q 736 -134 613 -134 l 736 -134 q 842 -126 791 -134 q 935 -106 893 -118 q 1005 -82 977 -94 l 1005 -82 l 1059 -223 q 972 -255 1025 -239 q 855 -280 920 -271 q 720 -290 791 -290 m 693 162 l 693 162 q 786 184 749 162 q 841 251 823 207 q 859 359 859 295 l 859 359 q 840 465 859 425 q 785 523 821 505 q 695 541 748 541 l 695 541 q 607 518 644 541 q 552 454 571 495 q 533 360 533 414 l 533 360 q 550 258 533 303 q 603 188 568 214 q 693 162 639 162 "},"#":{"ha":901,"x_min":15,"x_max":886,"o":"m 622 0 l 468 0 l 634 1010 l 788 1010 l 622 0 m 802 253 l 15 253 l 41 406 l 828 406 l 802 253 m 267 0 l 113 0 l 279 1010 l 433 1010 l 267 0 m 860 604 l 73 604 l 99 758 l 886 758 l 860 604 "},"%":{"ha":1411,"x_min":126,"x_max":1284,"o":"m 347 528 l 347 528 q 225 559 275 528 q 151 640 176 589 q 126 751 126 691 l 126 751 l 126 804 q 152 915 126 865 q 227 996 178 966 q 347 1027 276 1027 l 347 1027 q 468 996 418 1027 q 542 915 517 966 q 567 804 567 865 l 567 804 l 567 751 q 542 639 567 690 q 467 558 516 589 q 347 528 418 528 m 347 652 l 347 652 q 409 683 392 652 q 425 751 425 713 l 425 751 l 425 804 q 409 872 425 840 q 347 903 393 903 l 347 903 q 284 871 302 903 q 267 804 267 839 l 267 804 l 267 751 q 284 683 267 713 q 347 652 302 652 m 1064 -18 l 1064 -18 q 944 13 993 -18 q 869 94 895 43 q 844 205 844 145 l 844 205 l 844 258 q 869 369 844 319 q 945 450 895 420 q 1064 481 994 481 l 1064 481 q 1185 450 1137 481 q 1259 369 1234 420 q 1284 258 1284 319 l 1284 258 l 1284 205 q 1259 94 1284 144 q 1184 13 1234 43 q 1064 -18 1135 -18 m 1064 106 l 1064 106 q 1126 137 1109 106 q 1143 205 1143 168 l 1143 205 l 1143 258 q 1127 326 1143 294 q 1064 357 1111 357 l 1064 357 q 1002 326 1019 357 q 985 258 985 294 l 985 258 l 985 205 q 1002 137 985 168 q 1064 106 1019 106 m 425 0 l 284 0 l 979 1010 l 1119 1010 l 425 0 "},"^":{"ha":676,"x_min":47,"x_max":629,"o":"m 320 848 l 320 903 l 355 903 l 355 848 l 320 848 m 203 552 l 47 552 l 255 987 l 421 987 l 629 552 l 473 552 l 334 868 l 342 868 l 203 552 "},"$":{"ha":909,"x_min":58,"x_max":852,"o":"m 502 -136 l 420 -136 l 420 1147 l 502 1147 l 502 -136 m 462 -15 l 462 -15 q 251 22 340 -15 q 111 133 161 60 q 58 313 60 206 l 58 313 l 259 313 q 290 228 263 262 q 360 177 316 194 q 460 160 404 160 l 460 160 q 556 176 515 160 q 621 221 597 192 q 644 289 644 250 l 644 289 q 623 347 644 323 q 564 387 602 370 q 469 417 525 404 l 469 417 l 358 445 q 157 543 230 476 q 85 720 85 610 l 85 720 q 134 880 85 811 q 269 986 183 948 q 465 1024 355 1024 l 465 1024 q 660 986 576 1024 q 790 879 743 947 q 838 722 837 811 l 838 722 l 638 722 q 586 817 633 783 q 463 850 540 850 l 463 850 q 373 835 410 850 q 316 793 336 820 q 297 733 297 767 l 297 733 q 319 671 297 696 q 379 631 342 646 q 458 606 416 616 l 458 606 l 550 583 q 669 545 614 569 q 765 485 724 520 q 829 400 806 449 q 852 288 852 351 l 852 288 q 806 128 852 196 q 672 22 760 60 q 462 -15 585 -15 "},"|":{"ha":516,"x_min":161,"x_max":354,"o":"m 161 1336 l 354 1336 l 354 -326 l 161 -326 l 161 1336 "},"~":{"ha":943,"x_min":104,"x_max":839,"o":"m 264 275 l 106 275 q 130 431 104 368 q 205 527 156 495 q 319 559 254 559 l 319 559 q 408 541 366 559 q 504 473 450 522 l 504 473 q 553 435 533 448 q 598 422 572 422 l 598 422 q 656 450 634 422 q 678 536 679 477 l 678 536 l 836 536 q 812 380 839 444 q 736 284 785 316 q 624 252 688 252 l 624 252 q 531 272 574 252 q 437 337 488 293 l 437 337 q 388 377 406 365 q 345 389 370 389 l 345 389 q 286 363 309 389 q 264 275 263 336 l 264 275 "},"`":{"ha":507,"x_min":109,"x_max":392,"o":"m 392 854 l 249 854 l 109 1065 l 298 1065 l 392 854 "}}}
